<svg xmlns="http://www.w3.org/2000/svg" viewBox="0 0 48 48" width="48px" height="48px">
  <path d="M23.995 47.007c9.941 0 18.011.225 18.011.501 0 .276-8.069.501-18.011.501-9.941 0-18.011-.225-18.011-.501C5.985 47.232 14.054 47.007 23.995 47.007zM4.002 44.496c0-.456.204-.865.525-1.14l3.904-3.823c-3.972-3.98-6.429-9.473-6.429-15.537 0-12.144 9.857-22 22.001-22 12.144 0 22.001 9.856 22.001 22s-9.857 22-22.001 22H5.502C4.674 45.996 4.002 45.324 4.002 44.496zM39.002 27.996c0-.833-.128-1.647-.368-2.431-.031-.236.115-.469.355-.541.264-.079.543.072.621.337.161.545.275 1.105.336 1.676 1.245-.909 2.056-2.381 2.056-4.041 0-2.76-2.24-5-5-5-1.381 0-2.632.561-3.537 1.468-2.583-1.543-5.876-2.468-9.463-2.468-3.588 0-6.881.925-9.464 2.468-.905-.907-2.156-1.468-3.536-1.468-2.76 0-5 2.24-5 5 0 1.657.807 3.128 2.049 4.037.061-.569.173-1.128.336-1.672.079-.265.357-.416.621-.337.265.079.417.361.339.625-.181.477-.345 1.399-.345 2.347 0 6.072 6.72 11 15 11S39.002 34.068 39.002 27.996zM18.358 32.025l-.12-.38c-.099-.321.141-.649.477-.649h10.573c.336 0 .576.328.477.649l-.12.38c-.831 2.317-3.047 3.971-5.644 3.971S19.189 34.343 18.358 32.025zM15.002 26.996c0-1.271 1.151-3 2.352-3 1.796 0 2.648 1.667 2.648 3 0 2.257-1.037 3-2.648 3C16.153 29.996 15.002 29.3 15.002 26.996zM28.005 26.996c0-1.333.852-3 2.648-3 1.201 0 2.352 1.729 2.352 3 0 2.304-1.151 3-2.352 3C29.042 29.996 28.005 29.253 28.005 26.996zM19.003 25.496c0-.276-.225-.5-.501-.5-.276 0-.501.224-.501.5 0 .276.225.5.501.5C18.778 25.996 19.003 25.772 19.003 25.496zM32.002 25.496c0-.276-.225-.5-.501-.5-.276 0-.501.224-.501.5 0 .276.225.5.501.5C31.777 25.996 32.002 25.772 32.002 25.496zM29.489 13.023c.237.011.441.193.473.439.033.273-.161.523-.436.557-.293.036-.577.105-.849.203.719 1.071 1.94 1.775 3.325 1.775 2.208 0 4-1.792 4-4s-1.792-4-4-4c-1.96 0-3.591 1.411-3.935 3.272-2.293.657-4.104 2.456-4.78 4.74.236-.008.475-.012.715-.012.469 0 .935.016 1.395.045C26.095 14.404 27.643 13.212 29.489 13.023z" fill="#FFFFFF" />
</svg>